<svg xmlns="http://www.w3.org/2000/svg" width="1200" height="630" viewBox="0 0 1200 630" role="img" aria-labelledby="title desc">
  <title id="title">Nove Mani</title>
  <desc id="desc">Governed ventures, resilient infrastructure, and accountable software systems.</desc>
  <rect width="1200" height="630" fill="#081116"/>
  <path fill="#ff6a00" fill-opacity=".18" d="M760 0h440v630H640z"/>
  <path fill="#42d6c2" fill-opacity=".12" d="M0 420h520v210H0z"/>
  <g fill="none" stroke="#ffffff" stroke-opacity=".08">
    <path d="M0 105h1200M0 210h1200M0 315h1200M0 420h1200M0 525h1200"/>
    <path d="M150 0v630M300 0v630M450 0v630M600 0v630M750 0v630M900 0v630M1050 0v630"/>
  </g>
  <text x="90" y="110" fill="#ff6a00" font-family="Consolas, monospace" font-size="24" font-weight="700" letter-spacing="8">[NM]</text>
  <text x="90" y="250" fill="#f5efe7" font-family="Segoe UI, Arial, sans-serif" font-size="88" font-weight="700">Nove Mani</text>
  <text x="90" y="335" fill="#f5efe7" font-family="Segoe UI, Arial, sans-serif" font-size="42" font-weight="700">Governed ventures built to hold.</text>
  <text x="90" y="415" fill="#a79f97" font-family="Segoe UI, Arial, sans-serif" font-size="30">Infrastructure. Software. Operator discipline.</text>
  <path fill="#ff6a00" d="M90 500h320v8H90z"/>
</svg>
